<svg width="33" height="33" viewBox="0 0 33 33" fill="none" xmlns="http://www.w3.org/2000/svg">
<rect x="0.75" y="0.75" width="31.0215" height="31.0215" stroke="white" stroke-width="1.5"/>
<path d="M19.9972 15.7975C21.0198 15.9881 21.8605 16.4995 22.5192 17.3315C23.1778 18.1635 23.5072 19.1168 23.5072 20.1915C23.5072 21.1621 23.2645 22.0201 22.7792 22.7655C22.3112 23.4935 21.6265 24.0655 20.7252 24.4815C19.8238 24.8975 18.7578 25.1055 17.5272 25.1055H9.70117V6.95747H17.1892C18.4198 6.95747 19.4772 7.1568 20.3612 7.55547C21.2625 7.95414 21.9385 8.5088 22.3892 9.21947C22.8572 9.93013 23.0912 10.7361 23.0912 11.6375C23.0912 12.6948 22.8052 13.5788 22.2332 14.2895C21.6785 15.0001 20.9332 15.5028 19.9972 15.7975ZM13.3412 14.4455H16.6692C17.5358 14.4455 18.2032 14.2548 18.6712 13.8735C19.1392 13.4748 19.3732 12.9115 19.3732 12.1835C19.3732 11.4555 19.1392 10.8921 18.6712 10.4935C18.2032 10.0948 17.5358 9.89547 16.6692 9.89547H13.3412V14.4455ZM17.0072 22.1415C17.8912 22.1415 18.5758 21.9335 19.0612 21.5175C19.5638 21.1015 19.8152 20.5121 19.8152 19.7495C19.8152 18.9695 19.5552 18.3628 19.0352 17.9295C18.5152 17.4788 17.8132 17.2535 16.9292 17.2535H13.3412V22.1415H17.0072Z" fill="white"/>
</svg>
