<svg width="26" height="25" viewBox="0 0 26 25" fill="none" xmlns="http://www.w3.org/2000/svg">
<rect x="1" y="0.5" width="24" height="24" stroke="white"/>
<path d="M8.11695 12.1C8.11695 11.1387 8.33162 10.28 8.76095 9.524C9.19962 8.75867 9.79229 8.166 10.539 7.746C11.295 7.31667 12.1396 7.102 13.073 7.102C14.165 7.102 15.1216 7.382 15.943 7.942C16.7643 8.502 17.3383 9.27667 17.665 10.266H15.411C15.187 9.79933 14.8696 9.44933 14.459 9.216C14.0576 8.98267 13.591 8.866 13.059 8.866C12.4896 8.866 11.981 9.00133 11.533 9.272C11.0943 9.53333 10.749 9.90667 10.497 10.392C10.2543 10.8773 10.133 11.4467 10.133 12.1C10.133 12.744 10.2543 13.3133 10.497 13.808C10.749 14.2933 11.0943 14.6713 11.533 14.942C11.981 15.2033 12.4896 15.334 13.059 15.334C13.591 15.334 14.0576 15.2173 14.459 14.984C14.8696 14.7413 15.187 14.3867 15.411 13.92H17.665C17.3383 14.9187 16.7643 15.698 15.943 16.258C15.131 16.8087 14.1743 17.084 13.073 17.084C12.1396 17.084 11.295 16.874 10.539 16.454C9.79229 16.0247 9.19962 15.432 8.76095 14.676C8.33162 13.92 8.11695 13.0613 8.11695 12.1Z" fill="white"/>
</svg>
