<svg width="33" height="33" viewBox="0 0 33 33" fill="none" xmlns="http://www.w3.org/2000/svg">
<rect x="0.75" y="0.75" width="31.0215" height="31.0215" stroke="white" stroke-width="1.5"/>
<path d="M15.0798 6.95747C16.9865 6.95747 18.6592 7.33013 20.0978 8.07547C21.5538 8.8208 22.6718 9.8868 23.4518 11.2735C24.2492 12.6428 24.6478 14.2375 24.6478 16.0575C24.6478 17.8775 24.2492 19.4721 23.4518 20.8415C22.6718 22.1935 21.5538 23.2421 20.0978 23.9875C18.6592 24.7328 16.9865 25.1055 15.0798 25.1055H8.73584V6.95747H15.0798ZM14.9498 22.0115C16.8565 22.0115 18.3298 21.4915 19.3698 20.4515C20.4098 19.4115 20.9298 17.9468 20.9298 16.0575C20.9298 14.1681 20.4098 12.6948 19.3698 11.6375C18.3298 10.5628 16.8565 10.0255 14.9498 10.0255H12.3758V22.0115H14.9498Z" fill="white"/>
</svg>
