<svg width="363" height="49" viewBox="0 0 363 49" fill="none" xmlns="http://www.w3.org/2000/svg">
<path d="M0.50512 18.0007L3.19312 1.08073H9.88912C12.0971 1.08073 13.8731 1.45673 15.2171 2.20873C16.5771 2.94473 17.5131 3.98473 18.0251 5.32873C18.5531 6.65673 18.6731 8.21673 18.3851 10.0087C17.9691 12.6487 16.8571 14.6407 15.0491 15.9847C13.2571 17.3287 10.8811 18.0007 7.92112 18.0007H0.50512ZM6.36112 13.8247H8.04112C9.60912 13.8247 10.8171 13.4887 11.6651 12.8167C12.5291 12.1447 13.0651 11.1687 13.2731 9.88873C13.5291 8.24073 13.3291 7.05673 12.6731 6.33673C12.0331 5.61673 10.9131 5.25673 9.31312 5.25673H7.70512L6.36112 13.8247ZM19.7295 18.0007L22.4175 1.08073H34.9695L34.3455 5.01673H26.7375L26.3535 7.44073H33.3855L32.7615 11.3767H25.7295L25.2975 14.0647H32.9055L32.2815 18.0007H19.7295ZM38.6209 18.0007L40.6369 5.25673H35.7409L36.4129 1.08073H51.3889L50.7169 5.25673H45.8209L43.8049 18.0007H38.6209ZM50.6314 18.0007L53.3194 1.08073H65.8714L65.2474 5.01673H57.6394L57.2554 7.44073H64.2874L63.6634 11.3767H56.6314L56.1994 14.0647H63.8074L63.1834 18.0007H50.6314ZM65.4729 18.0007L68.1609 1.08073H76.0089C78.2489 1.08073 79.8489 1.57673 80.8089 2.56873C81.7849 3.54473 82.1289 4.93673 81.8409 6.74473C81.6809 7.78473 81.2969 8.69673 80.6889 9.48073C80.0809 10.2487 79.2889 10.8487 78.3129 11.2807C77.3369 11.7127 76.2169 11.9287 74.9529 11.9287L75.0009 11.2327H76.2729C76.9769 11.2327 77.5689 11.4407 78.0489 11.8567C78.5449 12.2567 78.9289 12.7847 79.2009 13.4407L81.0969 18.0007H75.6969L73.6329 12.6727C73.5369 12.4327 73.3289 12.2647 73.0089 12.1687C72.7049 12.0567 72.4009 12.0007 72.0969 12.0007H71.6169L70.6569 18.0007H65.4729ZM72.1929 8.37673H74.5209C75.2569 8.37673 75.8169 8.24073 76.2009 7.96873C76.5849 7.69673 76.8169 7.29673 76.8969 6.76873C76.9929 6.16073 76.8729 5.72073 76.5369 5.44873C76.2009 5.16073 75.6729 5.01673 74.9529 5.01673H72.7209L72.1929 8.37673ZM83.0584 18.0007L85.7464 1.08073H90.2584L93.5704 12.5767H92.7544L99.7144 1.08073H104.226L101.538 18.0007H96.8584L98.2984 8.85673H99.4504L93.6904 18.0007H90.8344L87.9544 8.85673H89.1784L87.7384 18.0007H83.0584ZM104.625 18.0007L107.313 1.08073H112.497L109.809 18.0007H104.625ZM112.834 18.0007L115.522 1.08073H119.314L125.65 10.8967L124.906 10.5607L126.418 1.08073H131.242L128.554 18.0007H124.762L118.45 8.18473L119.194 8.52073L117.682 18.0007H112.834ZM131.589 18.0007L134.277 1.08073H146.829L146.205 5.01673H138.597L138.213 7.44073H145.245L144.621 11.3767H137.589L137.157 14.0647H144.765L144.141 18.0007H131.589ZM153.819 18.0007L156.507 1.08073H161.691L159.003 18.0007H153.819ZM162.028 18.0007L164.716 1.08073H177.004L176.38 5.01673H169.276L168.844 7.65673H175.372L174.748 11.5927H168.22L167.212 18.0007H162.028ZM188.709 18.0007L185.301 1.08073H190.461L192.237 12.3847H191.061L196.941 1.08073H200.613L202.437 12.3847H201.309L207.045 1.08073H212.205L203.397 18.0007H199.293L197.397 8.11273H197.949L192.837 18.0007H188.709ZM211.334 18.0007L214.022 1.08073H226.574L225.95 5.01673H218.342L217.958 7.44073H224.99L224.366 11.3767H217.334L216.902 14.0647H224.51L223.886 18.0007H211.334ZM231.356 18.0007L242.084 1.08073H246.284L251.684 18.0007H246.668L245.372 13.4167L247.1 14.8567H237.284L239.42 13.4167L236.684 18.0007H231.356ZM243.5 6.36073L240.092 12.2887L239.588 10.9447H246.044L245.18 12.2887L243.62 6.36073H243.5ZM252.507 18.0007L255.195 1.08073H263.043C265.283 1.08073 266.883 1.57673 267.843 2.56873C268.819 3.54473 269.163 4.93673 268.875 6.74473C268.715 7.78473 268.331 8.69673 267.723 9.48073C267.115 10.2487 266.323 10.8487 265.347 11.2807C264.371 11.7127 263.251 11.9287 261.987 11.9287L262.035 11.2327H263.307C264.011 11.2327 264.603 11.4407 265.083 11.8567C265.579 12.2567 265.963 12.7847 266.235 13.4407L268.131 18.0007H262.731L260.667 12.6727C260.571 12.4327 260.363 12.2647 260.043 12.1687C259.739 12.0567 259.435 12.0007 259.131 12.0007H258.651L257.691 18.0007H252.507ZM259.227 8.37673H261.555C262.291 8.37673 262.851 8.24073 263.235 7.96873C263.619 7.69673 263.851 7.29673 263.931 6.76873C264.027 6.16073 263.907 5.72073 263.571 5.44873C263.235 5.16073 262.707 5.01673 261.987 5.01673H259.755L259.227 8.37673ZM270.02 18.0007L272.708 1.08073H285.26L284.636 5.01673H277.028L276.644 7.44073H283.676L283.052 11.3767H276.02L275.588 14.0647H283.196L282.572 18.0007H270.02ZM296.33 18.0007L297.626 9.86473L298.178 12.6487L292.298 1.08073H298.082L300.986 7.36873H300.002L304.946 1.08073H310.898L301.322 12.8887L302.81 9.86473L301.514 18.0007H296.33ZM308.639 9.04873C308.911 7.30473 309.479 5.81673 310.343 4.58473C311.207 3.35273 312.303 2.41673 313.631 1.77673C314.975 1.12073 316.495 0.792732 318.191 0.792732C320.175 0.792732 321.791 1.20073 323.039 2.01673C324.303 2.81673 325.191 3.91273 325.703 5.30473C326.215 6.69673 326.327 8.26473 326.039 10.0087C325.767 11.7527 325.199 13.2407 324.335 14.4727C323.471 15.7047 322.367 16.6487 321.023 17.3047C319.695 17.9607 318.175 18.2887 316.463 18.2887C314.495 18.2887 312.879 17.8807 311.615 17.0647C310.367 16.2487 309.487 15.1447 308.975 13.7527C308.479 12.3447 308.367 10.7767 308.639 9.04873ZM314.015 9.28873C313.855 10.2967 313.855 11.1527 314.015 11.8567C314.191 12.5607 314.519 13.0967 314.999 13.4647C315.495 13.8167 316.127 13.9927 316.895 13.9927C317.983 13.9927 318.831 13.6087 319.439 12.8407C320.063 12.0567 320.471 11.0327 320.663 9.76873C320.823 8.76073 320.815 7.91273 320.639 7.22473C320.463 6.52073 320.127 5.99273 319.631 5.64073C319.151 5.27273 318.519 5.08873 317.735 5.08873C316.647 5.08873 315.807 5.47273 315.215 6.24073C314.623 6.99273 314.223 8.00873 314.015 9.28873ZM335.434 18.2887C333.834 18.2887 332.466 18.0167 331.33 17.4727C330.194 16.9127 329.37 16.0567 328.858 14.9047C328.362 13.7367 328.258 12.2487 328.546 10.4407L330.034 1.08073H335.218L333.682 10.8007C333.522 11.8247 333.61 12.6167 333.946 13.1767C334.298 13.7207 334.978 13.9927 335.986 13.9927C336.898 13.9927 337.586 13.7127 338.05 13.1527C338.53 12.5927 338.85 11.7767 339.01 10.7047L340.546 1.08073H345.634L344.074 10.8727C343.818 12.4887 343.354 13.8487 342.682 14.9527C342.026 16.0567 341.106 16.8887 339.922 17.4487C338.738 18.0087 337.242 18.2887 335.434 18.2887ZM345.845 18.0007L348.533 1.08073H356.381C358.621 1.08073 360.221 1.57673 361.181 2.56873C362.157 3.54473 362.501 4.93673 362.213 6.74473C362.053 7.78473 361.669 8.69673 361.061 9.48073C360.453 10.2487 359.661 10.8487 358.685 11.2807C357.709 11.7127 356.589 11.9287 355.325 11.9287L355.373 11.2327H356.645C357.349 11.2327 357.941 11.4407 358.421 11.8567C358.917 12.2567 359.301 12.7847 359.573 13.4407L361.469 18.0007H356.069L354.005 12.6727C353.909 12.4327 353.701 12.2647 353.381 12.1687C353.077 12.0567 352.773 12.0007 352.469 12.0007H351.989L351.029 18.0007H345.845ZM352.565 8.37673H354.893C355.629 8.37673 356.189 8.24073 356.573 7.96873C356.957 7.69673 357.189 7.29673 357.269 6.76873C357.365 6.16073 357.245 5.72073 356.909 5.44873C356.573 5.16073 356.045 5.01673 355.325 5.01673H353.093L352.565 8.37673ZM126.649 48.0007L129.337 31.0807H137.593C139.705 31.0807 141.225 31.6247 142.153 32.7127C143.097 33.7847 143.433 35.2007 143.161 36.9607C143.017 37.9047 142.673 38.7607 142.129 39.5287C141.585 40.2807 140.833 40.8807 139.873 41.3287C138.929 41.7607 137.753 41.9767 136.345 41.9767H132.793L131.833 48.0007H126.649ZM133.417 38.0407H136.273C136.913 38.0407 137.385 37.9207 137.689 37.6807C138.009 37.4247 138.201 37.0727 138.265 36.6247C138.345 36.1127 138.257 35.7207 138.001 35.4487C137.761 35.1607 137.305 35.0167 136.633 35.0167H133.897L133.417 38.0407ZM143.554 48.0007L146.242 31.0807H158.794L158.17 35.0167H150.562L150.178 37.4407H157.21L156.586 41.3767H149.554L149.122 44.0647H156.73L156.106 48.0007H143.554ZM158.395 48.0007L161.083 31.0807H168.931C171.171 31.0807 172.771 31.5767 173.731 32.5687C174.707 33.5447 175.051 34.9367 174.763 36.7447C174.603 37.7847 174.219 38.6967 173.611 39.4807C173.003 40.2487 172.211 40.8487 171.235 41.2807C170.259 41.7127 169.139 41.9287 167.875 41.9287L167.923 41.2327H169.195C169.899 41.2327 170.491 41.4407 170.971 41.8567C171.467 42.2567 171.851 42.7847 172.123 43.4407L174.019 48.0007H168.619L166.555 42.6727C166.459 42.4327 166.251 42.2647 165.931 42.1687C165.627 42.0567 165.323 42.0007 165.019 42.0007H164.539L163.579 48.0007H158.395ZM165.115 38.3767H167.443C168.179 38.3767 168.739 38.2407 169.123 37.9687C169.507 37.6967 169.739 37.2967 169.819 36.7687C169.915 36.1607 169.795 35.7207 169.459 35.4487C169.123 35.1607 168.595 35.0167 167.875 35.0167H165.643L165.115 38.3767ZM175.909 48.0007L178.597 31.0807H190.885L190.261 35.0167H183.157L182.725 37.6567H189.253L188.629 41.5927H182.101L181.093 48.0007H175.909ZM190.305 48.0007L192.993 31.0807H205.545L204.921 35.0167H197.313L196.929 37.4407H203.961L203.337 41.3767H196.305L195.873 44.0647H203.481L202.857 48.0007H190.305ZM214.433 48.2887C212.385 48.2887 210.705 47.8807 209.393 47.0647C208.081 46.2487 207.153 45.1447 206.609 43.7527C206.081 42.3447 205.953 40.7767 206.225 39.0487C206.497 37.3047 207.089 35.8167 208.001 34.5847C208.913 33.3367 210.089 32.3927 211.529 31.7527C212.985 31.0967 214.633 30.7767 216.473 30.7927C217.545 30.8087 218.529 30.9527 219.425 31.2247C220.321 31.4967 221.057 31.8407 221.633 32.2567L219.977 36.3127C219.337 35.9447 218.737 35.6807 218.177 35.5207C217.633 35.3607 217.001 35.2807 216.281 35.2807C215.065 35.2807 214.033 35.6167 213.185 36.2887C212.353 36.9447 211.833 37.9127 211.625 39.1927C211.481 40.1527 211.521 40.9767 211.745 41.6647C211.969 42.3527 212.369 42.8807 212.945 43.2487C213.521 43.6167 214.257 43.8007 215.153 43.8007C215.809 43.8007 216.457 43.7127 217.097 43.5367C217.753 43.3447 218.457 43.0087 219.209 42.5287L220.481 46.5847C219.633 47.1287 218.697 47.5527 217.673 47.8567C216.649 48.1447 215.569 48.2887 214.433 48.2887ZM225.444 48.0007L227.46 35.2567H222.564L223.236 31.0807H238.212L237.54 35.2567H232.644L230.628 48.0007H225.444Z" fill="white" fill-opacity="0.85"/>
</svg>
