<svg width="99" height="24" viewBox="0 0 99 24" fill="none" xmlns="http://www.w3.org/2000/svg">
<path d="M0.338867 22.944L3.92287 0.383999H10.8349L7.25087 22.944H0.338867Z" fill="white" fill-opacity="0.78"/>
<path d="M16.3399 22.944L19.0279 5.952H12.4999L13.3959 0.383999H33.3639L32.4679 5.952H25.9399L23.2519 22.944H16.3399Z" fill="white" fill-opacity="0.78"/>
<path d="M37.1426 12.352L35.0306 10.08C35.9906 9.26933 36.7053 8.53333 37.1746 7.872C37.644 7.21067 37.9853 6.37867 38.1986 5.376L39.3506 7.008H34.6786L35.7346 0.383999H42.4866L41.7506 4.992C41.6013 5.97333 41.356 6.88 41.0146 7.712C40.6946 8.52267 40.2253 9.30133 39.6066 10.048C39.0093 10.7947 38.1879 11.5627 37.1426 12.352Z" fill="white" fill-opacity="0.78"/>
<path d="M51.5119 23.328C49.8692 23.328 48.2479 23.1467 46.6479 22.784C45.0692 22.4 43.7785 21.8987 42.7759 21.28L44.8559 15.968C45.7945 16.416 46.9145 16.8213 48.2159 17.184C49.5385 17.5467 50.8505 17.728 52.1519 17.728C53.4105 17.728 54.2745 17.6 54.7439 17.344C55.2132 17.0667 55.4799 16.7253 55.5439 16.32C55.5865 15.9787 55.5012 15.6907 55.2879 15.456C55.0959 15.2 54.6799 15.0187 54.0399 14.912L50.1039 14.208C48.2479 13.8667 46.7972 13.0987 45.7519 11.904C44.7279 10.688 44.3652 9.14133 44.6639 7.264C44.9199 5.728 45.5172 4.42667 46.4559 3.36C47.4159 2.272 48.6639 1.44 50.1999 0.863998C51.7572 0.287999 53.5492 0 55.5759 0C56.9839 0 58.3705 0.170666 59.7359 0.511999C61.1012 0.831999 62.1785 1.30133 62.9679 1.92L60.7919 7.104C60.0665 6.67733 59.2025 6.32533 58.1999 6.048C57.2185 5.74933 56.0985 5.6 54.8399 5.6C53.7732 5.6 52.9519 5.728 52.3759 5.984C51.8212 6.21867 51.5012 6.58133 51.4159 7.072C51.3732 7.34933 51.4585 7.63733 51.6719 7.936C51.8852 8.23467 52.3439 8.448 53.0479 8.576L56.9199 9.248C58.8825 9.58933 60.3439 10.3573 61.3039 11.552C62.2852 12.7467 62.6265 14.272 62.3279 16.128C62.1145 17.536 61.5492 18.784 60.6319 19.872C59.7359 20.96 58.5199 21.8133 56.9839 22.432C55.4479 23.0293 53.6239 23.328 51.5119 23.328Z" fill="white" fill-opacity="0.78"/>
<path d="M71.5574 22.944L85.8614 0.383999H91.4614L98.6614 22.944H91.9734L90.2454 16.832L92.5494 18.752H79.4614L82.3094 16.832L78.6614 22.944H71.5574ZM87.7494 7.424L83.2054 15.328L82.5334 13.536H91.1414L89.9894 15.328L87.9094 7.424H87.7494Z" fill="white" fill-opacity="0.78"/>
</svg>
