<svg width="320" height="55" viewBox="0 0 320 55" fill="none" xmlns="http://www.w3.org/2000/svg">
<path d="M0.744232 54.0007L9.04623 1.74261H22.9817L33.211 37.2485H30.6907L52.187 1.74261H66.1225L57.8205 54.0007H43.3661L47.8136 25.7591H51.3716L33.5816 54.0007H24.7607L15.8657 25.7591H19.6461L15.1986 54.0007H0.744232ZM64.2398 54.0007L97.3737 1.74261H110.346L127.024 54.0007H111.532L107.529 39.8429L112.866 44.2904H82.5487L89.1458 39.8429L80.6956 54.0007H64.2398ZM101.747 18.0501L91.2213 36.359L89.6647 32.208H109.604L106.936 36.359L102.118 18.0501H101.747ZM139.048 54.0007L145.275 14.6404H130.153L132.229 1.74261H178.483L176.407 14.6404H161.286L155.059 54.0007H139.048ZM205.345 54.8902C199.02 54.8902 193.831 53.6301 189.779 51.1099C185.727 48.5896 182.861 45.1799 181.181 40.8806C179.55 36.5319 179.155 31.6891 179.995 26.3521C180.835 20.9657 182.663 16.3699 185.48 12.5649C188.297 8.71036 191.929 5.79478 196.376 3.81811C200.873 1.79203 205.963 0.803693 211.646 0.853112C214.957 0.902528 217.996 1.34728 220.763 2.18736C223.531 3.02744 225.804 4.0899 227.583 5.37474L222.468 17.9019C220.492 16.7653 218.639 15.9499 216.909 15.4557C215.229 14.9616 213.277 14.7145 211.053 14.7145C207.297 14.7145 204.11 15.7522 201.491 17.8277C198.921 19.8538 197.315 22.8435 196.673 26.7969C196.228 29.7619 196.352 32.3068 197.043 34.4317C197.735 36.5567 198.971 38.1874 200.75 39.324C202.529 40.4606 204.802 41.0289 207.569 41.0289C209.595 41.0289 211.597 40.7571 213.573 40.2135C215.599 39.6205 217.774 38.5827 220.096 37.1002L224.025 49.6274C221.406 51.3075 218.515 52.6171 215.352 53.556C212.19 54.4455 208.854 54.8902 205.345 54.8902ZM232.073 54.0007L240.375 1.74261H256.386L253.272 21.0151H271.137L274.25 1.74261H290.261L281.959 54.0007H265.948L269.135 34.0611H251.271L248.084 54.0007H232.073ZM299.679 35.0989L300.124 1.74261H319.026L308.945 35.0989H299.679ZM293.453 54.0007L295.899 38.6569H311.539L309.093 54.0007H293.453Z" fill="white" fill-opacity="0.85"/>
</svg>
