<svg width="213" height="45" viewBox="0 0 213 45" fill="none" xmlns="http://www.w3.org/2000/svg">
<path d="M61.4182 34.2225L67.5643 33.8375C67.6974 34.8357 67.9684 35.5962 68.3772 36.1191C69.0426 36.9652 69.9933 37.3883 71.2292 37.3883C72.1513 37.3883 72.8596 37.1744 73.3539 36.7466C73.8578 36.3092 74.1097 35.8054 74.1097 35.235C74.1097 34.6931 73.8721 34.2083 73.3967 33.7805C72.9214 33.3527 71.8186 32.9486 70.0884 32.5683C67.2554 31.9314 65.2352 31.0853 64.0278 30.03C62.811 28.9748 62.2025 27.6296 62.2025 25.9944C62.2025 24.9202 62.5115 23.9077 63.1294 22.957C63.7569 21.9968 64.6933 21.2458 65.9387 20.7039C67.1936 20.1525 68.9095 19.8768 71.0866 19.8768C73.758 19.8768 75.7924 20.3759 77.1899 21.3742C78.5969 22.3629 79.4335 23.941 79.6997 26.1085L73.6106 26.465C73.449 25.5238 73.1068 24.8394 72.5839 24.4116C72.0705 23.9838 71.3575 23.7699 70.4449 23.7699C69.6938 23.7699 69.1282 23.9315 68.7479 24.2547C68.3677 24.5684 68.1775 24.9534 68.1775 25.4098C68.1775 25.7425 68.3344 26.042 68.6481 26.3082C68.9523 26.5838 69.6748 26.8405 70.8156 27.0782C73.6391 27.6866 75.6593 28.3046 76.8762 28.932C78.1026 29.55 78.9914 30.32 79.5428 31.2422C80.1037 32.1643 80.3842 33.1958 80.3842 34.3366C80.3842 35.677 80.0134 36.9129 79.2719 38.0442C78.5304 39.1755 77.4941 40.0359 76.1632 40.6253C74.8322 41.2052 73.1543 41.4952 71.1294 41.4952C67.5738 41.4952 65.1116 40.8107 63.7426 39.4417C62.3737 38.0727 61.5989 36.333 61.4182 34.2225ZM98.3251 35.0068H86.6889C86.7934 35.9385 87.0454 36.6325 87.4446 37.0888C88.0055 37.7448 88.7376 38.0727 89.6407 38.0727C90.2111 38.0727 90.753 37.9301 91.2664 37.6449C91.5801 37.4643 91.9176 37.1458 92.2788 36.6895L97.9971 37.2171C97.1225 38.7382 96.0673 39.8315 94.8314 40.497C93.5955 41.1529 91.8225 41.4809 89.5124 41.4809C87.5064 41.4809 85.9283 41.2005 84.778 40.6396C83.6277 40.0692 82.6723 39.1708 81.9117 37.9444C81.1607 36.7085 80.7852 35.2588 80.7852 33.5951C80.7852 31.2279 81.541 29.3123 83.0525 27.8482C84.5736 26.3842 86.6698 25.6522 89.3412 25.6522C91.5088 25.6522 93.22 25.9802 94.4749 26.6361C95.7298 27.2921 96.6852 28.2428 97.3412 29.4882C97.9971 30.7335 98.3251 32.3544 98.3251 34.3509V35.0068ZM92.4214 32.2261C92.3073 31.1043 92.0031 30.301 91.5088 29.8161C91.0239 29.3313 90.3822 29.0889 89.5837 29.0889C88.6615 29.0889 87.9247 29.4549 87.3733 30.1869C87.0216 30.6432 86.7982 31.323 86.7031 32.2261H92.4214ZM99.4391 20.2333H105.257V41.1387H99.4391V20.2333ZM107.412 20.2333H113.23V41.1387H107.412V20.2333ZM133.383 41.1387V20.2333H144.15C146.146 20.2333 147.672 20.4045 148.727 20.7467C149.782 21.089 150.633 21.7259 151.28 22.6576C151.926 23.5797 152.249 24.7063 152.249 26.0372C152.249 27.197 152.002 28.2 151.508 29.0461C151.014 29.8827 150.334 30.5624 149.469 31.0853C148.917 31.418 148.162 31.6937 147.201 31.9124C147.971 32.1691 148.532 32.4257 148.884 32.6824C149.122 32.8535 149.464 33.2196 149.911 33.7805C150.367 34.3414 150.671 34.7739 150.823 35.0781L153.946 41.1387H146.645L143.194 34.7501C142.757 33.9231 142.367 33.3859 142.025 33.1387C141.559 32.8155 141.031 32.6539 140.442 32.6539H139.872V41.1387H133.383ZM139.872 28.7039H142.595C142.89 28.7039 143.46 28.6088 144.307 28.4187C144.734 28.3331 145.081 28.1144 145.348 27.7627C145.623 27.4109 145.761 27.0069 145.761 26.5506C145.761 25.8756 145.547 25.3575 145.119 24.9962C144.692 24.635 143.888 24.4543 142.709 24.4543H139.872V28.7039ZM170.704 35.0068H159.067C159.172 35.9385 159.424 36.6325 159.823 37.0888C160.384 37.7448 161.116 38.0727 162.019 38.0727C162.59 38.0727 163.132 37.9301 163.645 37.6449C163.959 37.4643 164.296 37.1458 164.657 36.6895L170.376 37.2171C169.501 38.7382 168.446 39.8315 167.21 40.497C165.974 41.1529 164.201 41.4809 161.891 41.4809C159.885 41.4809 158.307 41.2005 157.157 40.6396C156.006 40.0692 155.051 39.1708 154.29 37.9444C153.539 36.7085 153.164 35.2588 153.164 33.5951C153.164 31.2279 153.92 29.3123 155.431 27.8482C156.952 26.3842 159.048 25.6522 161.72 25.6522C163.887 25.6522 165.599 25.9802 166.854 26.6361C168.108 27.2921 169.064 28.2428 169.72 29.4882C170.376 30.7335 170.704 32.3544 170.704 34.3509V35.0068ZM164.8 32.2261C164.686 31.1043 164.382 30.301 163.887 29.8161C163.403 29.3313 162.761 29.0889 161.962 29.0889C161.04 29.0889 160.303 29.4549 159.752 30.1869C159.4 30.6432 159.177 31.323 159.082 32.2261H164.8ZM171.618 25.9944H177.023V28.4614C177.831 27.4537 178.648 26.736 179.475 26.3082C180.303 25.8708 181.31 25.6522 182.499 25.6522C184.105 25.6522 185.36 26.1323 186.263 27.0925C187.176 28.0431 187.632 29.5167 187.632 31.5131V41.1387H181.8V32.8108C181.8 31.8601 181.624 31.1899 181.272 30.8001C180.92 30.4008 180.426 30.2012 179.789 30.2012C179.086 30.2012 178.515 30.4674 178.078 30.9997C177.641 31.5321 177.422 32.4875 177.422 33.866V41.1387H171.618V25.9944ZM196.347 20.2333V25.9944H199.541V30.2297H196.347V35.6057C196.347 36.2522 196.409 36.68 196.532 36.8892C196.722 37.2124 197.055 37.374 197.53 37.374C197.958 37.374 198.557 37.2504 199.327 37.0032L199.755 41.0103C198.319 41.3241 196.979 41.4809 195.734 41.4809C194.289 41.4809 193.224 41.2955 192.539 40.9248C191.855 40.554 191.346 39.9931 191.014 39.2421C190.69 38.4815 190.529 37.2552 190.529 35.563V30.2297H188.39V25.9944H190.529V23.2137L196.347 20.2333Z" fill="#1E93FF"/>
<path d="M131.628 41.1387H114.202C114.401 39.418 115.005 37.8018 116.013 36.2902C117.03 34.7692 118.931 32.9771 121.717 30.9142C123.419 29.6498 124.507 28.6896 124.982 28.0336C125.458 27.3777 125.695 26.755 125.695 26.1656C125.695 25.5286 125.458 24.9867 124.982 24.5399C124.517 24.0836 123.927 23.8554 123.214 23.8554C122.473 23.8554 121.864 24.0883 121.389 24.5542C120.923 25.02 120.609 25.8423 120.448 27.0212L114.63 26.5506C114.858 24.9154 115.276 23.6415 115.884 22.7289C116.493 21.8067 117.348 21.1032 118.451 20.6184C119.564 20.124 121.099 19.8768 123.057 19.8768C125.101 19.8768 126.689 20.1098 127.82 20.5756C128.961 21.0414 129.855 21.7592 130.501 22.7289C131.157 23.689 131.485 24.7681 131.485 25.9659C131.485 27.2398 131.109 28.4567 130.358 29.6165C129.617 30.7763 128.262 32.0502 126.294 33.4382C125.125 34.2463 124.341 34.8119 123.941 35.1352C123.552 35.4584 123.091 35.8814 122.558 36.4043H131.628V41.1387Z" fill="#40FF62"/>
<g filter="url(#filter0_d_3983_7290)">
<path d="M208.237 35.0903C208.237 35.71 207.822 36.0762 207.019 36.0762H205.949V34.1113H207.019C207.822 34.1113 208.237 34.4706 208.237 35.0903Z" fill="#40FF62"/>
<mask id="mask0_3983_7290" style="mask-type:luminance" maskUnits="userSpaceOnUse" x="201" y="30" width="12" height="12">
<path d="M201.667 30.5703H212.405V41.3087H201.667V30.5703Z" fill="white"/>
</mask>
<g mask="url(#mask0_3983_7290)">
<path d="M208.259 38.2661L207.252 36.8226C207.188 36.8293 207.125 36.8293 207.061 36.8293H205.949V38.2661H205.033V33.3364H207.061C208.357 33.3364 209.16 33.9985 209.16 35.0901C209.16 35.8366 208.78 36.3859 208.111 36.6463L209.245 38.2661H208.259ZM207.037 30.5703C204.071 30.5703 201.667 32.9743 201.667 35.9398C201.667 38.9052 204.071 41.3093 207.037 41.3093C210.002 41.3093 212.406 38.9052 212.406 35.9398C212.406 32.9743 210.002 30.5703 207.037 30.5703Z" fill="#40FF62"/>
</g>
</g>
<g filter="url(#filter1_d_3983_7290)">
<path fill-rule="evenodd" clip-rule="evenodd" d="M40.792 0.662306C40.7522 0.625586 40.691 0.625586 40.6512 0.662305L21.0668 18.7587C20.9975 18.8228 21.0428 18.9386 21.1372 18.9386H28.0068V27.3757H28.007V32.8519L28.0068 32.8517V33.2043V33.6088V33.9614L27.9861 34.1999L27.9342 34.5318L27.8305 35.04L27.6957 35.4652L27.5712 35.88L27.4572 36.1601L27.2186 36.6786L26.7727 37.4357L26.42 37.9335L26.0674 38.338L25.6733 38.7632L25.4037 39.0225L24.8747 39.4477L24.3043 39.8418L23.9413 40.07L23.1843 40.4641L22.3027 40.7959L21.6804 40.9826L20.8196 41.1589L19.627 41.2938L35.6244 41.2836C35.862 41.3039 36.1025 41.3143 36.3453 41.3143H44.5593C49.1645 41.3143 52.8977 37.5811 52.8977 32.9759V26.0895L52.8976 26.0439V18.9386H60.306C60.4004 18.9386 60.4457 18.8228 60.3764 18.7587L52.8973 11.8479V5.57563C52.8973 5.39234 52.7487 5.24375 52.5654 5.24375H49.1637C48.9804 5.24375 48.8318 5.39234 48.8318 5.57563V8.09126L40.792 0.662306ZM36.2209 21.6505C35.7627 21.6505 35.3912 22.022 35.3912 22.4802V29.3459C35.3912 29.8041 35.7627 30.1756 36.2209 30.1756H43.6467C44.1049 30.1756 44.4763 29.8041 44.4763 29.3459V22.4802C44.4763 22.022 44.1049 21.6505 43.6467 21.6505H36.2209Z" fill="#1E93FF"/>
</g>
<g filter="url(#filter2_d_3983_7290)">
<path fill-rule="evenodd" clip-rule="evenodd" d="M27.0504 12.3274L20.5089 6.24883C20.4293 6.17487 20.3061 6.17487 20.2265 6.24883L1.06664 24.0529C0.928571 24.1812 1.01936 24.4123 1.20784 24.4123H8.3794L8.37935 24.4124H7.63175V27.9176V32.17V32.7505C7.63175 37.4817 11.4671 41.3171 16.1983 41.3171H19.8282C20.0662 41.3171 20.3019 41.3074 20.535 41.2884L18.9733 41.2893L20.1659 41.1545L21.0268 40.9782L21.649 40.7915L22.5306 40.4597L23.2877 40.0656L23.6506 39.8374L24.2211 39.4433L24.75 39.0181L25.0196 38.7588L25.4137 38.3336L25.7664 37.9291L26.119 37.4313L26.5649 36.6742L26.8035 36.1556L26.9176 35.8756L27.042 35.4608L27.1768 35.0356L27.2805 34.5274L27.3324 34.1955L27.3739 33.8118V33.386C27.3672 33.2487 27.3638 33.1106 27.3638 32.9717V26.0852L27.3639 26.0396V19.4737H20.9069C20.3406 19.4737 20.0687 18.7787 20.4846 18.3944L27.0504 12.3274ZM14.3375 25.6494C14.3375 25.1912 14.709 24.8197 15.1672 24.8197H20.975C21.4333 24.8197 21.8047 25.1912 21.8047 25.6494V30.9179C21.8047 31.3762 21.4333 31.7476 20.975 31.7476H15.1672C14.709 31.7476 14.3375 31.3762 14.3375 30.9179V25.6494Z" fill="#40FF62"/>
</g>
<defs>
<filter id="filter0_d_3983_7290" x="201.584" y="30.5703" width="10.904" height="10.9042" filterUnits="userSpaceOnUse" color-interpolation-filters="sRGB">
<feFlood flood-opacity="0" result="BackgroundImageFix"/>
<feColorMatrix in="SourceAlpha" type="matrix" values="0 0 0 0 0 0 0 0 0 0 0 0 0 0 0 0 0 0 127 0" result="hardAlpha"/>
<feOffset dy="0.0829691"/>
<feGaussianBlur stdDeviation="0.0414845"/>
<feComposite in2="hardAlpha" operator="out"/>
<feColorMatrix type="matrix" values="0 0 0 0 0 0 0 0 0 0 0 0 0 0 0 0 0 0 0.25 0"/>
<feBlend mode="normal" in2="BackgroundImageFix" result="effect1_dropShadow_3983_7290"/>
<feBlend mode="normal" in="SourceGraphic" in2="effect1_dropShadow_3983_7290" result="shape"/>
</filter>
<filter id="filter1_d_3983_7290" x="19.4818" y="0.634766" width="41.0734" height="40.9701" filterUnits="userSpaceOnUse" color-interpolation-filters="sRGB">
<feFlood flood-opacity="0" result="BackgroundImageFix"/>
<feColorMatrix in="SourceAlpha" type="matrix" values="0 0 0 0 0 0 0 0 0 0 0 0 0 0 0 0 0 0 127 0" result="hardAlpha"/>
<feOffset dy="0.145196"/>
<feGaussianBlur stdDeviation="0.0725979"/>
<feComposite in2="hardAlpha" operator="out"/>
<feColorMatrix type="matrix" values="0 0 0 0 0 0 0 0 0 0 0 0 0 0 0 0 0 0 0.4 0"/>
<feBlend mode="normal" in2="BackgroundImageFix" result="effect1_dropShadow_3983_7290"/>
<feBlend mode="normal" in="SourceGraphic" in2="effect1_dropShadow_3983_7290" result="shape"/>
</filter>
<filter id="filter2_d_3983_7290" x="0.792577" y="6.19336" width="26.7886" height="35.5379" filterUnits="userSpaceOnUse" color-interpolation-filters="sRGB">
<feFlood flood-opacity="0" result="BackgroundImageFix"/>
<feColorMatrix in="SourceAlpha" type="matrix" values="0 0 0 0 0 0 0 0 0 0 0 0 0 0 0 0 0 0 127 0" result="hardAlpha"/>
<feOffset dy="0.207423"/>
<feGaussianBlur stdDeviation="0.103711"/>
<feComposite in2="hardAlpha" operator="out"/>
<feColorMatrix type="matrix" values="0 0 0 0 0 0 0 0 0 0 0 0 0 0 0 0 0 0 0.2 0"/>
<feBlend mode="normal" in2="BackgroundImageFix" result="effect1_dropShadow_3983_7290"/>
<feBlend mode="normal" in="SourceGraphic" in2="effect1_dropShadow_3983_7290" result="shape"/>
</filter>
</defs>
</svg>
